<svg id="visual" viewBox="0 0 900 600" width="900" height="600" xmlns="http://www.w3.org/2000/svg" xmlns:xlink="http://www.w3.org/1999/xlink" version="1.1"><rect x="0" y="0" width="900" height="600" fill="#e5ede5"></rect><path d="M0 434L21.5 445.7C43 457.3 86 480.7 128.8 491.5C171.7 502.3 214.3 500.7 257.2 495.8C300 491 343 483 385.8 483.5C428.7 484 471.3 493 514.2 503C557 513 600 524 642.8 511.2C685.7 498.3 728.3 461.7 771.2 447C814 432.3 857 439.7 878.5 443.3L900 447L900 601L878.5 601C857 601 814 601 771.2 601C728.3 601 685.7 601 642.8 601C600 601 557 601 514.2 601C471.3 601 428.7 601 385.8 601C343 601 300 601 257.2 601C214.3 601 171.7 601 128.8 601C86 601 43 601 21.5 601L0 601Z" fill="#ccd0d6" stroke-linecap="round" stroke-linejoin="miter"></path></svg>